<?xml version="1.0" standalone="no"?><!DOCTYPE svg PUBLIC "-//W3C//DTD SVG 1.1//EN" "http://www.w3.org/Graphics/SVG/1.1/DTD/svg11.dtd"><svg xmlns:xlink="http://www.w3.org/1999/xlink" version="1.1" class="highcharts-root" style="font-family:&quot;Lucida Grande&quot;, &quot;Lucida Sans Unicode&quot;, Arial, Helvetica, sans-serif;font-size:12px;" xmlns="http://www.w3.org/2000/svg" width="600" height="250" viewBox="0 0 600 250"><desc>Created with Highcharts 6.1.1</desc><defs><clipPath id="highcharts-cpck1n1-13"><rect x="0" y="0" width="580" height="191" fill="none"></rect></clipPath></defs><rect fill="none" class="highcharts-background" x="0" y="0" width="600" height="250" rx="0" ry="0"></rect><rect fill="none" class="highcharts-plot-background" x="10" y="44" width="580" height="191"></rect><rect fill="none" class="highcharts-plot-border" data-z-index="1" x="10" y="44" width="580" height="191"></rect><g class="highcharts-series-group" data-z-index="3"><g data-z-index="0.1" class="highcharts-series highcharts-series-0 highcharts-map-series highcharts-color-0 " transform="translate(10,44) scale(1 1)" stroke-width="1" clip-path="url(#highcharts-cpck1n1-13)"><g transform="translate(0,0) scale(1 1)"><path fill="rgb(230,235,245)" d="M 190.22691761363637 98.4391571969697 L 189.02864583333334 98.46176609848486 189.61647727272728 96.60783617424242 190.65648674242425 97.03740530303031 190.22691761363637 98.4391571969697 M 284.21212121212125 100.38352272727273 L 285.68169981060606 101.35570549242425 288.8243371212121 102.3504971590909 289.32173295454544 103.93312026515152 288.5982481060606 105.19921875 287.015625 105.69661458333334 285.2069128787879 105.58357007575758 283.7147253787879 104.95052083333334 283.44341856060606 103.70703125 282.832978219697 103.5261600378788 282.65210700757575 104.92791193181819 281.2503551136364 105.78705018939394 279.5772964015151 106.0809659090909 277.90423768939394 105.85487689393939 275.01029829545456 104.49834280303031 272.7494081439394 104.22703598484848 272.16157670454544 103.5713778409091 273.6311553030303 102.41832386363637 275.43986742424244 101.71744791666667 277.06770833333337 100.47395833333334 278.3790246212121 100.24786931818183 279.48686079545456 100.6774384469697 281.0694839015151 99.56960227272728 283.0590672348485 98.71046401515152 284.21212121212125 100.38352272727273 M 301.3270596590909 99.72786458333334 L 300.8748816287879 101.15222537878788 300.4000946969697 100.13482481060606 296.9635416666667 98.59741950757576 296.420928030303 97.15044981060606 297.1444128787879 95.99739583333334 298.2522490530303 95.56782670454545 300.80705492424244 98.3487215909091 301.3270596590909 99.72786458333334 M 303.8592566287879 98.10002367424242 L 302.84185606060606 98.16785037878788 300.60357481060606 96.26870265151516 300.6940104166667 95.04782196969697 301.68880208333337 94.1434659090909 303.1583806818182 93.9625946969697 304.06273674242425 95.70348011363636 305.1705729166667 97.03740530303031 303.8592566287879 98.10002367424242 M 220.40980113636363 96.78870738636364 L 219.55066287878788 97.58001893939394 218.8950047348485 96.8565340909091 217.80977746212122 94.55042613636364 217.94543087121212 93.44258996212122 219.48283617424244 91.6338778409091 220.72632575757575 90.95561079545455 221.90198863636363 91.36257102272728 222.42199337121212 92.26692708333334 222.53503787878788 94.55042613636364 220.40980113636363 96.78870738636364 M 308.3810369318182 93.69128787878788 L 307.83842329545456 96.0652225378788 306.97928503787875 96.44957386363636 305.5323153409091 93.62346117424242 307.16015625 94.16607481060606 306.2105823863636 92.515625 306.866240530303 92.44779829545455 308.3810369318182 93.69128787878788 M 262.1910511363636 94.6182528409091 L 259.2066761363636 96.0652225378788 257.23970170454544 96.72088068181819 256.76491477272725 98.14524147727273 256.06403882575756 97.24088541666667 254.4135890151515 96.65305397727273 253.89358428030303 97.44436553030303 251.2483428030303 96.9921875 249.8465909090909 97.21827651515152 250.2761600378788 95.74869791666667 252.1753077651515 96.2008759469697 257.2170928030303 94.07563920454545 258.1214488636364 95.00260416666667 259.07102272727275 95.07043087121212 258.8675426136364 93.30693655303031 260.83451704545456 90.54865056818183 261.76148200757575 89.93821022727273 262.0780066287879 91.11387310606061 263.25366950757575 91.81474905303031 262.8693181818182 93.93998579545455 262.1910511363636 94.6182528409091 M 315.32196969696975 90.43560606060606 L 313.28716856060606 90.39038825757576 308.4488636363636 88.76254734848486 308.47147253787875 87.88080018939394 311.63671875 84.96425189393939 311.2749763257576 86.11730587121212 311.63671875 87.13470643939394 314.37239583333337 88.85298295454545 315.32196969696975 90.43560606060606 M 206.41489109848484 84.51207386363636 L 205.80445075757575 84.78338068181819 204.26704545454544 83.53989109848484 204.2444365530303 82.79379734848484 205.69140625 81.21117424242425 206.82185132575756 82.04770359848484 207.11576704545456 83.3816287878788 206.41489109848484 84.51207386363636 M 176.61635890151516 76.82504734848484 L 176.8198390151515 77.32244318181819 176.27722537878788 78.72419507575758 175.9380918560606 77.07374526515152 176.61635890151516 76.82504734848484 M 245.52829071969697 63.87014678030303 L 245.30220170454544 65.00059185606061 244.51089015151516 63.89275568181819 244.42045454545456 62.76231060606061 245.3700284090909 62.92057291666667 245.52829071969697 63.87014678030303 M 304.0853456439394 44.788233901515156 L 304.469696969697 46.73259943181818 303.2035984848485 46.393465909090914 302.389678030303 45.39867424242424 303.0679450757576 44.44910037878788 304.0853456439394 44.788233901515156 M 382.967803030303 76.48591382575758 L 383.84955018939394 79.24419981060606 382.4251893939394 80.55551609848484 382.10866477272725 82.40944602272728 380.86517518939394 83.92424242424242 381.52083333333337 87.45123106060606 381.5434422348485 91.29474431818183 383.37476325757575 93.35215435606061 383.1712831439394 96.02000473484848 380.8199573863636 100.31569602272728 380.4808238636364 102.12440814393939 385.1382575757576 103.20963541666667 387.9869791666667 102.0791903409091 389.5017755681818 102.73484848484848 390.88091856060606 107.09836647727273 392.7348484848485 110.48970170454545 392.16962594696975 111.37144886363637 388.936553030303 112.14015151515152 382.9904119318182 114.51408617424242 382.0408380681818 114.37843276515152 380.729521780303 113.33842329545455 378.96602746212125 113.81321022727273 374.8512073863636 113.47407670454545 371.9798768939394 114.26538825757576 369.49289772727275 115.5993134469697 367.3224431818182 116.41323390151516 365.1293797348485 116.79758522727273 365.35546875 118.60629734848486 368.0233191287879 120.50544507575758 368.83723958333337 121.7489346590909 369.1763731060606 127.5368134469697 368.9502840909091 128.2829071969697 366.05634469696975 132.7142518939394 364.2928503787879 139.5647490530303 360.6528172348485 144.1317471590909 360.06498579545456 145.9630681818182 358.934540719697 151.47964015151516 357.7588778409091 154.87097537878788 352.78491950757575 163.3493134469697 351.11186079545456 168.6624053030303 350.9083806818182 170.31285511363637 351.13446969696975 178.40684185606062 350.4788115530303 186.47821969696972 347.0196496212121 190.88695549242425 346.2283380681818 191 216.81498579545456 171.01373106060606 214.5540956439394 169.6345880681818 168.27367424242425 105.51574337121212 167.34670928030303 102.73484848484848 167.66323390151516 97.73828125 167.43714488636363 95.59043560606061 168.56758996212122 94.05303030303031 168.72585227272728 91.61126893939394 167.9119318181818 89.57646780303031 168.95194128787878 88.46863162878788 170.37630208333334 91.06865530303031 170.42151988636363 95.38695549242425 170.69282670454547 97.35392992424242 171.39370265151516 97.82871685606061 172.1624053030303 97.08262310606061 172.75023674242425 94.5730350378788 173.81285511363637 97.6026278409091 174.94330018939394 97.71567234848486 176.18678977272728 94.73129734848486 177.15897253787878 94.05303030303031 178.15376420454547 95.68087121212122 178.24419981060606 96.87914299242425 177.58854166666666 100.42874053030303 178.1311553030303 104.47573390151516 178.0407196969697 106.96271306818183 179.14855587121212 110.26361268939394 182.8338068181818 110.78361742424242 185.16252367424244 112.4792850378788 185.34339488636363 111.19057765151516 190.0686553030303 111.37144886363637 192.23910984848484 112.7958096590909 194.83913352272728 112.4792850378788 196.73828125 112.7958096590909 197.55220170454547 112.43406723484848 200.28787878787878 112.50189393939394 203.11399147727272 111.07753314393939 206.3018465909091 110.82883522727273 208.24621212121212 109.20099431818183 209.82883522727272 108.83925189393939 211.66015625 107.93489583333334 212.33842329545456 106.73662405303031 213.8984375 106.12618371212122 215.36801609848484 104.88269412878788 218.46543560606062 103.18702651515152 218.87239583333334 100.56439393939394 219.88979640151516 100.04438920454545 221.56285511363637 101.17483428030303 223.3263494318182 103.75224905303031 225.8811553030303 103.45833333333334 229.0464015151515 104.29486268939394 231.96294981060606 103.59398674242425 233.1160037878788 104.04616477272728 237.43430397727275 104.54356060606061 239.76302083333334 103.82007575757576 240.16998106060606 103.07398200757576 243.53870738636363 105.60617897727273 245.59611742424244 104.79225852272728 247.56309185606062 105.7644412878788 247.4274384469697 103.27746212121212 248.60310132575756 103.05137310606061 251.11268939393938 104.72443181818183 253.01183712121212 107.16619318181819 255.8153409090909 107.3922821969697 262.3719223484849 106.23922821969697 264.4519412878788 107.73141571969697 266.53196022727275 107.61837121212122 268.657196969697 109.02012310606061 269.6293797348485 110.3766571969697 272.0711410984849 109.96969696969697 273.47289299242425 110.46709280303031 275.8468276515151 109.29142992424242 277.3390151515151 109.76621685606061 283.5338541666667 109.94708806818183 285.3877840909091 109.35925662878788 288.5530303030303 107.73141571969697 291.7634943181818 107.27923768939394 295.22265625 105.99053030303031 297.3252840909091 105.65139678030303 298.9305160984849 104.54356060606061 300.6714015151515 102.46354166666667 304.0401278409091 101.55918560606061 307.65755208333337 98.86872632575758 310.6645359848485 99.81830018939394 312.9932528409091 97.78349905303031 313.9654356060606 96.47218276515152 316.04545454545456 92.49301609848486 315.95501893939394 90.45821496212122 316.79154829545456 90.05125473484848 316.11328125 89.23733428030303 318.8715672348485 90.07386363636364 317.53764204545456 87.74514678030303 320.6124526515151 89.32776988636364 320.47679924242425 87.8581912878788 319.5272253787879 87.38340435606061 316.8367660984849 86.97644412878788 312.72194602272725 84.28598484848484 316.22632575757575 82.43205492424242 316.61067708333337 83.96946022727273 317.56025094696975 85.48425662878788 318.7811316287879 86.43383049242425 320.00201231060606 86.27556818181819 318.9620028409091 85.46164772727273 321.042021780303 85.91382575757576 321.9463778409091 84.80598958333334 323.91335227272725 81.00769412878788 322.8959517045455 79.6963778409091 324.2977035984849 79.19898200757576 324.772490530303 77.66157670454545 325.69945549242425 77.25461647727273 324.25248579545456 73.52414772727273 324.88553503787875 72.14500473484848 326.8751183712121 70.8336884469697 327.6890388257576 69.63541666666667 329.3168797348485 70.44933712121212 330.78645833333337 69.81628787878788 330.3794981060606 68.21105587121212 335.9412878787879 65.06841856060606 341.028290719697 61.27012310606061 342.2943892045455 60.86316287878788 343.37961647727275 61.24751420454545 349.3709753787879 79.2215909090909 350.4788115530303 81.12073863636364 352.51361268939394 81.59552556818183 363.2528409090909 81.30160984848484 366.21460700757575 80.46508049242425 369.65116003787875 78.52071496212122 375.2581676136364 76.30504261363636 376.43383049242425 75.53633996212122 380.3677793560606 76.59895833333334 382.967803030303 76.48591382575758 Z" stroke="#cccccc" stroke-width="inherit" class="highcharts-point highcharts-color-0 highcharts-name-abu-dhabi highcharts-key-ae-az"></path><path fill="rgb(207,217,236)" d="M 349.6875 52.63352272727273 L 350.77272727272725 53.56048768939394 350.5240293560606 53.741358901515156 349.52923768939394 52.723958333333336 349.6875 52.63352272727273 M 401.8236268939394 69.36410984848484 L 400.9644886363636 71.42151988636364 399.8792613636364 72.75544507575758 399.08794981060606 74.27024147727273 396.9627130681818 74.54154829545455 396.9627130681818 73.34327651515152 398.5001183712121 69.54498106060606 401.80101799242425 69.36410984848484 401.8236268939394 69.36410984848484 M 342.2943892045455 60.86316287878788 L 340.8022017045455 60.04924242424243 340.55350378787875 58.8509706439394 341.1639441287879 57.72052556818182 340.734375 59.710108901515156 342.4752604166667 60.750118371212125 343.0404829545455 60.54663825757576 342.2039535984849 58.986624053030305 341.5256865530303 58.53444602272727 342.81439393939394 58.08226799242424 342.2943892045455 58.67009943181819 343.1987452651515 60.478811553030305 343.9448390151515 58.964015151515156 343.67353219696975 60.25272253787879 345.1883285984849 59.39358428030303 344.9396306818182 58.26313920454545 346.8387784090909 58.12748579545455 350.6822916666667 53.741358901515156 355.9275568181818 47.229995265151516 356.15364583333337 45.57954545454545 357.1258285984849 44.720407196969695 357.9397490530303 44.85606060606061 358.934540719697 46.70999053030303 358.0301846590909 48.450875946969695 359.4319365530303 48.04391571969697 359.72585227272725 47.07173295454545 358.23366477272725 43.499526515151516 359.2962831439394 42.18821022727273 361.96413352272725 43.024739583333336 363.411103219697 42.93430397727273 365.5589488636364 42.278645833333336 366.80243844696975 43.72561553030303 368.4302793560606 44.69779829545455 369.58333333333337 45.80563446969697 373.15553977272725 48.270004734848484 374.5346827651515 50.25958806818182 375.95904356060606 56.36399147727273 375.8686079545455 57.06486742424243 373.9920691287879 59.41619318181819 375.23555871212125 62.513612689393945 376.0268702651515 65.20407196969697 376.16252367424244 68.14322916666667 376.9764441287879 72.21283143939394 376.9312263257576 73.88589015151516 376.43383049242425 75.53633996212122 375.2581676136364 76.30504261363636 369.65116003787875 78.52071496212122 366.21460700757575 80.46508049242425 363.2528409090909 81.30160984848484 352.51361268939394 81.59552556818183 350.4788115530303 81.12073863636364 349.3709753787879 79.2215909090909 343.37961647727275 61.24751420454545 342.2943892045455 60.86316287878788 Z" stroke="#cccccc" stroke-width="inherit" class="highcharts-point highcharts-color-0 highcharts-name-dubay highcharts-key-ae-du"></path><path fill="rgb(184,198,227)" d="M 407.588896780303 45.466500946969695 L 406.5941051136364 45.80563446969697 406.4132339015151 44.336055871212125 407.13671875 44.042140151515156 407.8602035984849 44.56214488636364 407.588896780303 45.466500946969695 M 407.1141098484849 64.41276041666667 L 406.3001893939394 64.34493371212122 405.9610558712121 65.4753787878788 403.4966856060606 65.13624526515152 402.3436316287879 63.915364583333336 402.77320075757575 61.90317234848485 401.8914535984849 59.23532196969697 400.91927083333337 57.63008996212121 401.52971117424244 56.657907196969695 402.4566761363636 57.04225852272727 406.0288825757576 60.90838068181819 406.8654119318182 63.01100852272727 406.9332386363636 63.53101325757576 407.1141098484849 64.41276041666667 M 407.47585227272725 62.33274147727273 L 407.8828125 60.79533617424243 408.47064393939394 60.11706912878788 408.6741240530303 58.511837121212125 408.3575994318182 57.99183238636364 407.6793323863636 55.30137310606061 408.58368844696975 55.18832859848485 411.54545454545456 55.8665956439394 411.5228456439394 56.477035984848484 412.5854640151515 60.86316287878788 409.827178030303 61.15707859848485 409.3523910984849 61.72230113636364 409.1715198863636 63.53101325757576 408.1993371212121 63.23709753787879 407.47585227272725 62.33274147727273 M 411.77154356060606 36.19685132575758 L 411.9298058712121 37.68903882575758 411.5228456439394 39.294270833333336 412.653290719697 41.84907670454545 411.2967566287879 42.86647727272727 410.9350142045455 43.36387310606061 408.9454308712121 42.93430397727273 407.99585700757575 41.48733428030303 406.4810606060606 41.28385416666667 407.09150094696975 39.72383996212121 409.48804450757575 38.16382575757576 411.77154356060606 36.19685132575758 M 389.7504734848485 40.243844696969695 L 390.54178503787875 41.46472537878788 391.2426609848485 39.99514678030303 391.64962121212125 38.20904356060606 392.3504971590909 37.93773674242424 393.4357244318182 38.43513257575758 392.508759469697 41.14820075757576 391.6722301136364 41.84907670454545 391.5591856060606 42.549952651515156 392.1922348484849 43.90648674242424 392.7574573863636 45.57954545454545 392.62180397727275 47.049124053030305 391.3330965909091 48.38304924242424 390.9261363636364 49.69436553030303 392.21484375 51.48046875 390.7678740530303 54.87180397727273 390.72265625 57.11008522727273 391.7400568181818 59.37097537878788 391.9887547348485 61.0892518939394 389.9539535984849 60.750118371212125 387.9869791666667 61.24751420454545 386.2234848484849 62.35535037878788 384.5504261363636 63.84753787878788 383.01302083333337 65.7919034090909 382.47040719696975 67.48757102272728 382.85475852272725 71.7606534090909 382.6060606060606 74.85807291666667 382.967803030303 76.48591382575758 380.3677793560606 76.59895833333334 376.43383049242425 75.53633996212122 376.9312263257576 73.88589015151516 376.9764441287879 72.21283143939394 376.16252367424244 68.14322916666667 376.0268702651515 65.20407196969697 375.23555871212125 62.513612689393945 373.9920691287879 59.41619318181819 375.8686079545455 57.06486742424243 375.95904356060606 56.36399147727273 374.5346827651515 50.25958806818182 373.15553977272725 48.270004734848484 369.58333333333337 45.80563446969697 368.4302793560606 44.69779829545455 366.80243844696975 43.72561553030303 365.5589488636364 42.278645833333336 363.411103219697 42.93430397727273 361.96413352272725 43.024739583333336 359.2962831439394 42.18821022727273 360.0423768939394 41.39689867424242 361.2632575757576 41.261245265151516 361.0823863636364 39.90471117424242 361.96413352272725 39.00035511363637 362.48413825757575 39.4525331439394 364.3832859848485 37.39512310606061 365.5589488636364 38.186434659090914 368.8146306818182 39.15861742424242 373.0877130681818 39.42992424242424 373.6981534090909 39.13600852272727 374.87381628787875 36.4681581439394 374.12772253787875 35.99337121212121 371.0981297348485 35.40553977272727 367.8424479166667 33.800307765151516 368.5659327651515 32.98638731060606 367.95549242424244 32.64725378787879 369.04071969696975 30.86115056818182 372.4546638257576 33.00899621212121 374.5572916666667 34.72727272727273 378.1068892045455 36.21946022727273 381.36257102272725 39.00035511363637 382.3799715909091 40.37949810606061 382.69649621212125 41.826467803030305 383.5782433712121 43.61257102272727 384.3921638257576 44.064749053030305 386.4495738636364 43.95170454545455 388.5069839015151 43.13778409090909 389.0043797348485 42.18821022727273 388.59741950757575 40.53776041666667 389.7504734848485 40.243844696969695 Z" stroke="#cccccc" stroke-width="inherit" class="highcharts-point highcharts-color-0 highcharts-name-sharjah highcharts-key-ae-sh"></path><path fill="rgb(161,180,217)" d="M 380.729521780303 22.721946022727273 L 381.9730113636364 21.34280303030303 383.0582386363636 21.094105113636363 384.0982481060606 20.302793560606062 385.5904356060606 19.895833333333336 387.39914772727275 18.47147253787879 390.15743371212125 15.012310606060607 391.5365767045455 13.859256628787879 390.38352272727275 16.459280303030305 391.1522253787879 16.70797821969697 392.16962594696975 12.796638257575758 394.3174715909091 10.829663825757576 395.13139204545456 9.608783143939394 395.6740056818182 7.800071022727273 393.9783380681818 9.269649621212121 395.31226325757575 7.076586174242425 396.397490530303 4.747869318181818 397.5279356060606 0.74609375 398.7035984848485 0.6556581439393939 401.2357954545455 0 401.8236268939394 0.06782670454545454 402.84102746212125 3.3461174242424243 402.3888494318182 6.013967803030304 402.1401515151515 10.987926136363637 400.82883522727275 13.135771780303031 400.78361742424244 14.89926609848485 401.9366714015151 16.481889204545457 401.80101799242425 17.90625 400.6253551136364 18.96886837121212 400.78361742424244 22.405421401515152 401.1453598484849 23.106297348484848 400.4670928030303 23.58108428030303 398.36446496212125 24.14630681818182 396.9401041666667 23.988044507575758 395.8096590909091 24.711529356060606 394.5887784090909 26.022845643939394 393.59398674242425 26.452414772727273 392.3504971590909 26.452414772727273 391.7400568181818 27.5602509469697 392.55397727272725 32.05942234848485 394.000946969697 32.64725378787879 396.62357954545456 32.55681818181818 397.889678030303 31.855942234848484 398.68098958333337 31.833333333333336 399.85665246212125 33.77769886363637 399.42708333333337 34.74988162878788 398.0027225378788 36.42294034090909 398.3870738636364 37.19164299242424 399.5853456439394 37.3046875 400.17317708333337 37.824692234848484 400.08274147727275 39.38470643939394 398.635771780303 40.334280303030305 397.2566287878788 40.56036931818182 394.79225852272725 39.79166666666667 393.4357244318182 38.43513257575758 392.3504971590909 37.93773674242424 391.64962121212125 38.20904356060606 391.2426609848485 39.99514678030303 390.54178503787875 41.46472537878788 389.7504734848485 40.243844696969695 387.35392992424244 37.66642992424242 387.7608901515151 36.35511363636364 387.4669744318182 35.292495265151516 385.5904356060606 33.23508522727273 385.0704308712121 31.810724431818183 384.8443418560606 29.23330965909091 383.5330255681818 24.734138257575758 381.9956202651515 23.897608901515152 380.729521780303 22.721946022727273 M 407.06889204545456 66.74147727272728 L 405.3732244318182 68.36931818181819 404.4688683712121 68.79888731060606 401.8236268939394 69.36410984848484 401.80101799242425 69.36410984848484 398.5001183712121 69.54498106060606 395.7418323863636 66.99017518939394 394.453125 66.06321022727273 394.04616477272725 63.62144886363637 393.4809422348485 61.99360795454545 391.9887547348485 61.0892518939394 391.7400568181818 59.37097537878788 390.72265625 57.11008522727273 390.7678740530303 54.87180397727273 392.21484375 51.48046875 390.9261363636364 49.69436553030303 391.3330965909091 48.38304924242424 392.62180397727275 47.049124053030305 395.87748579545456 47.43347537878788 396.80445075757575 47.16216856060606 398.7940340909091 47.501302083333336 400.35404829545456 46.50651041666667 400.6931818181818 44.92388731060606 402.1627604166667 43.770833333333336 402.2984138257576 43.11517518939394 401.10014204545456 43.047348484848484 399.8792613636364 42.16560132575758 401.5523200757576 41.03515625 403.15755208333337 41.48733428030303 403.700165719697 42.549952651515156 405.1245265151515 42.301254734848484 405.6897490530303 44.22301136363637 403.8358191287879 45.466500946969695 403.74538352272725 47.049124053030305 401.6879734848485 47.43347537878788 401.34883996212125 48.02130681818182 401.620146780303 50.41785037878788 401.00970643939394 53.92223011363637 401.00970643939394 55.07528409090909 401.52971117424244 56.657907196969695 400.91927083333337 57.63008996212121 401.8914535984849 59.23532196969697 402.77320075757575 61.90317234848485 402.3436316287879 63.915364583333336 403.4966856060606 65.13624526515152 405.9610558712121 65.4753787878788 406.842803030303 66.10842803030303 407.06889204545456 66.74147727272728 Z" stroke="#cccccc" stroke-width="inherit" class="highcharts-point highcharts-color-0 highcharts-name-ras-al-khaymah highcharts-key-ae-rk"></path><path fill="rgb(138,161,208)" d="M 369.04071969696975 30.86115056818182 L 369.5155066287879 29.23330965909091 370.872040719697 27.266335227272727 371.73117897727275 26.927201704545457 370.41986268939394 29.255918560606062 371.48248106060606 30.29592803030303 374.64772727272725 29.640269886363637 376.20774147727275 26.24893465909091 378.37819602272725 24.214133522727273 380.11908143939394 23.55847537878788 380.729521780303 22.721946022727273 381.9956202651515 23.897608901515152 383.5330255681818 24.734138257575758 384.8443418560606 29.23330965909091 385.0704308712121 31.810724431818183 385.5904356060606 33.23508522727273 387.4669744318182 35.292495265151516 387.7608901515151 36.35511363636364 387.35392992424244 37.66642992424242 389.7504734848485 40.243844696969695 388.59741950757575 40.53776041666667 389.0043797348485 42.18821022727273 388.5069839015151 43.13778409090909 386.4495738636364 43.95170454545455 384.3921638257576 44.064749053030305 383.5782433712121 43.61257102272727 382.69649621212125 41.826467803030305 382.3799715909091 40.37949810606061 381.36257102272725 39.00035511363637 378.1068892045455 36.21946022727273 374.5572916666667 34.72727272727273 372.4546638257576 33.00899621212121 369.04071969696975 30.86115056818182 Z" stroke="#cccccc" stroke-width="inherit" class="highcharts-point highcharts-color-0 highcharts-name-umm-al-qaywayn highcharts-key-ae-uq"></path><path fill="rgb(115,143,199)" d="M 409.081084280303 64.52580492424242 L 408.7645596590909 65.45276988636364 407.06889204545456 66.74147727272728 406.842803030303 66.10842803030303 405.9610558712121 65.4753787878788 406.3001893939394 64.34493371212122 407.1141098484849 64.41276041666667 408.6967329545455 64.7292850378788 409.081084280303 64.52580492424242 M 401.52971117424244 56.657907196969695 L 401.00970643939394 55.07528409090909 401.00970643939394 53.92223011363637 401.620146780303 50.41785037878788 401.34883996212125 48.02130681818182 401.6879734848485 47.43347537878788 403.74538352272725 47.049124053030305 405.192353219697 47.90826231060606 406.0288825757576 47.56912878787879 408.1089015151515 46.009114583333336 410.6863162878788 44.87866950757576 410.9350142045455 43.36387310606061 411.2967566287879 42.86647727272727 412.653290719697 41.84907670454545 412.24633049242425 45.647372159090914 411.77154356060606 48.066524621212125 411.54545454545456 55.8665956439394 408.58368844696975 55.18832859848485 407.6793323863636 55.30137310606061 408.3575994318182 57.99183238636364 408.6741240530303 58.511837121212125 408.47064393939394 60.11706912878788 407.8828125 60.79533617424243 407.47585227272725 62.33274147727273 406.8654119318182 63.01100852272727 406.0288825757576 60.90838068181819 402.4566761363636 57.04225852272727 401.52971117424244 56.657907196969695 M 406.4810606060606 41.28385416666667 L 405.1245265151515 42.301254734848484 403.700165719697 42.549952651515156 403.15755208333337 41.48733428030303 401.5523200757576 41.03515625 399.8792613636364 42.16560132575758 401.10014204545456 43.047348484848484 402.2984138257576 43.11517518939394 402.1627604166667 43.770833333333336 400.6931818181818 44.92388731060606 400.35404829545456 46.50651041666667 398.7940340909091 47.501302083333336 396.80445075757575 47.16216856060606 395.87748579545456 47.43347537878788 392.62180397727275 47.049124053030305 392.7574573863636 45.57954545454545 392.1922348484849 43.90648674242424 393.4809422348485 42.843868371212125 393.70703125 42.278645833333336 392.508759469697 41.14820075757576 393.4357244318182 38.43513257575758 394.79225852272725 39.79166666666667 397.2566287878788 40.56036931818182 398.635771780303 40.334280303030305 400.08274147727275 39.38470643939394 400.17317708333337 37.824692234848484 399.5853456439394 37.3046875 398.3870738636364 37.19164299242424 398.0027225378788 36.42294034090909 399.42708333333337 34.74988162878788 399.85665246212125 33.77769886363637 398.68098958333337 31.833333333333336 397.889678030303 31.855942234848484 396.62357954545456 32.55681818181818 394.000946969697 32.64725378787879 392.55397727272725 32.05942234848485 391.7400568181818 27.5602509469697 392.3504971590909 26.452414772727273 393.59398674242425 26.452414772727273 394.5887784090909 26.022845643939394 395.8096590909091 24.711529356060606 396.9401041666667 23.988044507575758 398.36446496212125 24.14630681818182 400.4670928030303 23.58108428030303 401.1453598484849 23.106297348484848 402.9766808712121 23.8297821969697 403.81321022727275 25.3671875 404.604521780303 25.593276515151516 407.49846117424244 24.847182765151516 408.56107954545456 25.480232007575758 410.573271780303 26.135890151515152 410.9576231060606 26.768939393939394 412.0428503787879 30.522017045454547 411.77154356060606 36.19685132575758 409.48804450757575 38.16382575757576 407.09150094696975 39.72383996212121 406.4810606060606 41.28385416666667 Z" stroke="#cccccc" stroke-width="inherit" class="highcharts-point highcharts-color-0 highcharts-name-fujayrah highcharts-key-ae-fu"></path><path fill="rgb(92,125,190)" d="M 406.8654119318182 63.01100852272727 L 407.47585227272725 62.33274147727273 408.1993371212121 63.23709753787879 409.1715198863636 63.53101325757576 409.081084280303 64.52580492424242 408.6967329545455 64.7292850378788 407.1141098484849 64.41276041666667 406.9332386363636 63.53101325757576 406.8654119318182 63.01100852272727 Z" stroke="#cccccc" stroke-width="inherit" class="highcharts-point highcharts-color-0 highcharts-name-neutral-zone highcharts-key-ae-740"></path><path fill="rgb(69,106,181)" d="M 364.3832859848485 37.39512310606061 L 365.1293797348485 36.37772253787879 365.94330018939394 37.12381628787879 366.4859138257576 36.01598011363637 366.8250473484849 36.40033143939394 367.8424479166667 33.800307765151516 371.0981297348485 35.40553977272727 374.12772253787875 35.99337121212121 374.87381628787875 36.4681581439394 373.6981534090909 39.13600852272727 373.0877130681818 39.42992424242424 368.8146306818182 39.15861742424242 365.5589488636364 38.186434659090914 364.3832859848485 37.39512310606061 M 392.508759469697 41.14820075757576 L 393.70703125 42.278645833333336 393.4809422348485 42.843868371212125 392.1922348484849 43.90648674242424 391.5591856060606 42.549952651515156 391.6722301136364 41.84907670454545 392.508759469697 41.14820075757576 Z" stroke="#cccccc" stroke-width="inherit" class="highcharts-point highcharts-color-0 highcharts-name-ajman highcharts-key-ae-aj"></path><path fill="rgb(46,88,171)" d="M 398.5001183712121 69.54498106060606 L 396.9627130681818 73.34327651515152 396.9627130681818 74.54154829545455 396.2618371212121 74.45111268939394 394.7244318181818 73.18501420454545 393.254853219697 69.36410984848484 391.3783143939394 67.64583333333333 391.1974431818182 66.13103693181819 392.0791903409091 65.85973011363636 393.4357244318182 66.37973484848484 394.63399621212125 67.26148200757576 394.453125 66.06321022727273 395.7418323863636 66.99017518939394 398.5001183712121 69.54498106060606 Z" stroke="#cccccc" stroke-width="inherit" class="highcharts-point highcharts-color-0 highcharts-name-neutral-zone highcharts-key-ae-742"></path></g></g><g data-z-index="0.1" class="highcharts-markers highcharts-series-0 highcharts-map-series highcharts-color-0 " transform="translate(10,44) scale(1 1)" clip-path="none"></g></g><text x="300" text-anchor="middle" class="highcharts-title" data-z-index="4" style="color:#FFF;font-size:18px;font:bold 16px &quot;Trebuchet MS&quot;, Verdana, sans-serif;fill:#FFF;" y="24"><tspan>United Arab Emirates</tspan></text><text x="300" text-anchor="middle" class="highcharts-subtitle" data-z-index="4" style="color:#666666;fill:#666666;" y="43"></text><g data-z-index="6" class="highcharts-data-labels highcharts-series-0 highcharts-map-series highcharts-color-0 " visibility="visible" transform="translate(10,44) scale(1 1)" clip-path="url(#highcharts-cpck1n1-13)"><g class="highcharts-label highcharts-data-label highcharts-data-label-color-0 " data-z-index="1" transform="translate(253,139)"><text x="0" data-z-index="1" style="font-size:11px;font-weight:bold;color:#000000;fill:#000000;" y="11"><tspan x="0" y="11" class="highcharts-text-outline" fill="#FFFFFF" stroke="#FFFFFF" stroke-width="2px" stroke-linejoin="round" style="">Abu Dhabi</tspan><tspan x="0" y="11">Abu Dhabi</tspan></text></g><g class="highcharts-label highcharts-data-label highcharts-data-label-color-0 " data-z-index="1" transform="translate(344,57)" opacity="0" visibility="hidden"><text x="0" data-z-index="1" style="font-size:11px;font-weight:bold;color:#000000;fill:#000000;" y="11"><tspan x="0" y="11" class="highcharts-text-outline" fill="#FFFFFF" stroke="#FFFFFF" stroke-width="2px" stroke-linejoin="round" style="">Dubay</tspan><tspan x="0" y="11">Dubay</tspan></text></g><g class="highcharts-label highcharts-data-label highcharts-data-label-color-0 " data-z-index="1" transform="translate(363,45)"><text x="0" data-z-index="1" style="font-size:11px;font-weight:bold;color:#000000;fill:#000000;" y="11"><tspan x="0" y="11" class="highcharts-text-outline" fill="#FFFFFF" stroke="#FFFFFF" stroke-width="2px" stroke-linejoin="round" style="">Sharjah</tspan><tspan x="0" y="11">Sharjah</tspan></text></g><g class="highcharts-label highcharts-data-label highcharts-data-label-color-0 " data-z-index="1" transform="translate(349,12)"><text x="0" data-z-index="1" style="font-size:11px;font-weight:bold;color:#000000;fill:#000000;" y="11"><tspan x="0" y="11" class="highcharts-text-outline" fill="#FFFFFF" stroke="#FFFFFF" stroke-width="2px" stroke-linejoin="round" style="">Ras Al Khaymah</tspan><tspan x="0" y="11">Ras Al Khaymah</tspan></text></g><g class="highcharts-label highcharts-data-label highcharts-data-label-color-0 " data-z-index="1" transform="translate(332,24)" opacity="0" visibility="hidden"><text x="0" data-z-index="1" style="font-size:11px;font-weight:bold;color:#FFFFFF;fill:#FFFFFF;" y="11"><tspan x="0" y="11" class="highcharts-text-outline" fill="#000000" stroke="#000000" stroke-width="2px" stroke-linejoin="round" style="">Umm Al Qaywayn</tspan><tspan x="0" y="11">Umm Al Qaywayn</tspan></text></g><g class="highcharts-label highcharts-data-label highcharts-data-label-color-0 " data-z-index="1" transform="translate(379,24)" opacity="0" visibility="hidden"><text x="0" data-z-index="1" style="font-size:11px;font-weight:bold;color:#FFFFFF;fill:#FFFFFF;" y="11"><tspan x="0" y="11" class="highcharts-text-outline" fill="#000000" stroke="#000000" stroke-width="2px" stroke-linejoin="round" style="">Fujayrah</tspan><tspan x="0" y="11">Fujayrah</tspan></text></g><g class="highcharts-label highcharts-data-label highcharts-data-label-color-0 " data-z-index="1" transform="translate(372,57)" opacity="0" visibility="hidden"><text x="0" data-z-index="1" style="font-size:11px;font-weight:bold;color:#FFFFFF;fill:#FFFFFF;" y="11"><tspan x="0" y="11" class="highcharts-text-outline" fill="#000000" stroke="#000000" stroke-width="2px" stroke-linejoin="round" style="">Neutral Zone</tspan><tspan x="0" y="11">Neutral Zone</tspan></text></g><g class="highcharts-label highcharts-data-label highcharts-data-label-color-0 " data-z-index="1" transform="translate(352,30)"><text x="0" data-z-index="1" style="font-size:11px;font-weight:bold;color:#FFFFFF;fill:#FFFFFF;" y="11"><tspan x="0" y="11" class="highcharts-text-outline" fill="#000000" stroke="#000000" stroke-width="2px" stroke-linejoin="round" style="">Ajman</tspan><tspan x="0" y="11">Ajman</tspan></text></g><g class="highcharts-label highcharts-data-label highcharts-data-label-color-0 " data-z-index="1" transform="translate(360,63)"><text x="0" data-z-index="1" style="font-size:11px;font-weight:bold;color:#FFFFFF;fill:#FFFFFF;" y="11"><tspan x="0" y="11" class="highcharts-text-outline" fill="#000000" stroke="#000000" stroke-width="2px" stroke-linejoin="round">Neutral Zone</tspan><tspan x="0" y="11">Neutral Zone</tspan></text></g></g></svg>